<?xml version="1.0" encoding="UTF-8"?>
<svg width="32px" height="32px" viewBox="0 0 32 32" version="1.1" xmlns="http://www.w3.org/2000/svg">
  <g stroke="none" stroke-width="1" fill="none" fill-rule="evenodd">
    <!-- Background circle -->
    <circle fill="#F59E0B" cx="16" cy="16" r="16"/>
    
    <!-- Skyscraper silhouette -->
    <path d="M18,5 L18,27 L22,27 L22,9 L24,9 L24,27 L26,27 L26,11 L28,11 L28,27 L30,27 L30,27 L30,29 L2,29 L2,27 L4,27 L4,15 L6,15 L6,27 L8,27 L8,13 L10,13 L10,27 L12,27 L12,11 L14,11 L14,27 L16,27 L16,5 L18,5 Z" fill="#000000"/>
    
    <!-- Windows -->
    <rect fill="#FFFFFF" opacity="0.6" x="6" y="17" width="1" height="1"/>
    <rect fill="#FFFFFF" opacity="0.6" x="6" y="19" width="1" height="1"/>
    <rect fill="#FFFFFF" opacity="0.6" x="6" y="21" width="1" height="1"/>
    <rect fill="#FFFFFF" opacity="0.6" x="6" y="23" width="1" height="1"/>
    <rect fill="#FFFFFF" opacity="0.6" x="6" y="25" width="1" height="1"/>
    
    <rect fill="#FFFFFF" opacity="0.6" x="9" y="15" width="1" height="1"/>
    <rect fill="#FFFFFF" opacity="0.6" x="9" y="17" width="1" height="1"/>
    <rect fill="#FFFFFF" opacity="0.6" x="9" y="19" width="1" height="1"/>
    <rect fill="#FFFFFF" opacity="0.6" x="9" y="21" width="1" height="1"/>
    <rect fill="#FFFFFF" opacity="0.6" x="9" y="23" width="1" height="1"/>
    <rect fill="#FFFFFF" opacity="0.6" x="9" y="25" width="1" height="1"/>
    
    <rect fill="#FFFFFF" opacity="0.6" x="13" y="13" width="1" height="1"/>
    <rect fill="#FFFFFF" opacity="0.6" x="13" y="15" width="1" height="1"/>
    <rect fill="#FFFFFF" opacity="0.6" x="13" y="17" width="1" height="1"/>
    <rect fill="#FFFFFF" opacity="0.6" x="13" y="19" width="1" height="1"/>
    <rect fill="#FFFFFF" opacity="0.6" x="13" y="21" width="1" height="1"/>
    <rect fill="#FFFFFF" opacity="0.6" x="13" y="23" width="1" height="1"/>
    <rect fill="#FFFFFF" opacity="0.6" x="13" y="25" width="1" height="1"/>
    
    <rect fill="#FFFFFF" opacity="0.6" x="17" y="7" width="1" height="1"/>
    <rect fill="#FFFFFF" opacity="0.6" x="17" y="9" width="1" height="1"/>
    <rect fill="#FFFFFF" opacity="0.6" x="17" y="11" width="1" height="1"/>
    <rect fill="#FFFFFF" opacity="0.6" x="17" y="13" width="1" height="1"/>
    <rect fill="#FFFFFF" opacity="0.6" x="17" y="15" width="1" height="1"/>
    <rect fill="#FFFFFF" opacity="0.6" x="17" y="17" width="1" height="1"/>
    <rect fill="#FFFFFF" opacity="0.6" x="17" y="19" width="1" height="1"/>
    <rect fill="#FFFFFF" opacity="0.6" x="17" y="21" width="1" height="1"/>
    <rect fill="#FFFFFF" opacity="0.6" x="17" y="23" width="1" height="1"/>
    <rect fill="#FFFFFF" opacity="0.6" x="17" y="25" width="1" height="1"/>
    
    <rect fill="#FFFFFF" opacity="0.6" x="21" y="11" width="1" height="1"/>
    <rect fill="#FFFFFF" opacity="0.6" x="21" y="13" width="1" height="1"/>
    <rect fill="#FFFFFF" opacity="0.6" x="21" y="15" width="1" height="1"/>
    <rect fill="#FFFFFF" opacity="0.6" x="21" y="17" width="1" height="1"/>
    <rect fill="#FFFFFF" opacity="0.6" x="21" y="19" width="1" height="1"/>
    <rect fill="#FFFFFF" opacity="0.6" x="21" y="21" width="1" height="1"/>
    <rect fill="#FFFFFF" opacity="0.6" x="21" y="23" width="1" height="1"/>
    <rect fill="#FFFFFF" opacity="0.6" x="21" y="25" width="1" height="1"/>
    
    <rect fill="#FFFFFF" opacity="0.6" x="25" y="13" width="1" height="1"/>
    <rect fill="#FFFFFF" opacity="0.6" x="25" y="15" width="1" height="1"/>
    <rect fill="#FFFFFF" opacity="0.6" x="25" y="17" width="1" height="1"/>
    <rect fill="#FFFFFF" opacity="0.6" x="25" y="19" width="1" height="1"/>
    <rect fill="#FFFFFF" opacity="0.6" x="25" y="21" width="1" height="1"/>
    <rect fill="#FFFFFF" opacity="0.6" x="25" y="23" width="1" height="1"/>
    <rect fill="#FFFFFF" opacity="0.6" x="25" y="25" width="1" height="1"/>
  </g>
</svg> 